<?xml version="1.0" encoding="iso-8859-1"?>
<!-- Generator: Adobe Illustrator 17.1.0, SVG Export Plug-In . SVG Version: 6.00 Build 0)  -->
<!DOCTYPE svg PUBLIC "-//W3C//DTD SVG 1.1//EN" "http://www.w3.org/Graphics/SVG/1.1/DTD/svg11.dtd">
<svg version="1.1" id="Capa_1" xmlns="http://www.w3.org/2000/svg" xmlns:xlink="http://www.w3.org/1999/xlink" x="0px" y="0px"
	 viewBox="0 0 469.592 469.592" style="enable-background:new 0 0 469.592 469.592;" xml:space="preserve">
<path d="M349.844,158.513l18.618-18.202c1.433-1.401,2.245-3.317,2.257-5.321c0.011-2.003-0.779-3.929-2.196-5.346l-31.861-31.862
	c-2.892-2.891-7.566-2.932-10.509-0.096l-19.037,18.353c-0.608-0.38-1.216-0.76-1.83-1.13V7.5c0-4.143-3.357-7.5-7.5-7.5H170.338
	c-4.142,0-7.5,3.357-7.5,7.5v109.54c-0.14,0.091-0.278,0.185-0.418,0.275l-18.98-18.297c-2.942-2.837-7.618-2.796-10.508,0.096
	l-31.861,31.861c-1.417,1.417-2.208,3.343-2.197,5.346c0.011,2.004,0.824,3.92,2.257,5.321l19.313,18.881
	c-12.444,20.424-19.619,44.394-19.619,70.009c0,25.193,6.947,48.792,19.015,68.993l-18.709,18.291
	c-1.433,1.401-2.246,3.317-2.257,5.321c-0.011,2.003,0.78,3.929,2.197,5.346l31.861,31.862c1.463,1.463,3.382,2.196,5.304,2.196
	c1.875,0,3.751-0.699,5.205-2.101l17.99-17.344c1.163,0.771,2.338,1.524,3.526,2.26c-1.309,1.35-2.119,3.188-2.119,5.218v111.517
	c0,4.143,3.358,7.5,7.5,7.5h127.447c4.143,0,7.5-3.357,7.5-7.5v-112.64c0-1.044-0.214-2.038-0.599-2.941
	c0.816-0.487,1.625-0.982,2.43-1.485l19.037,18.353c1.454,1.401,3.33,2.101,5.205,2.101c1.921,0,3.841-0.733,5.304-2.196
	l31.861-31.862c1.417-1.417,2.207-3.343,2.196-5.346c-0.012-2.004-0.824-3.92-2.257-5.321l-18.618-18.202
	c13.213-20.854,20.875-45.558,20.875-72.02S363.057,179.367,349.844,158.513z M331.26,113.596l21.291,21.291l-11.539,11.281
	c-6.327-7.876-13.515-15.032-21.425-21.319L331.26,113.596z M177.838,84.691h89.701c4.143,0,7.5-3.357,7.5-7.5s-3.357-7.5-7.5-7.5
	h-89.701v-21.5h89.701c4.143,0,7.5-3.357,7.5-7.5s-3.357-7.5-7.5-7.5h-89.701V15h112.447v92.099
	c-16.68-7.396-35.124-11.514-54.514-11.514c-20.724,0-40.369,4.701-57.933,13.084V84.691z M117.04,136.218l21.291-21.29
	l11.809,11.384c-7.798,6.419-14.861,13.697-21.054,21.683L117.04,136.218z M235.771,110.585
	c66.139,0,119.947,53.809,119.947,119.947S301.91,350.479,235.771,350.479s-119.947-53.809-119.947-119.947
	S169.633,110.585,235.771,110.585z M138.331,344.531L117.04,323.24l11.342-11.088c6.124,8.038,13.127,15.371,20.867,21.853
	L138.331,344.531z M290.285,454.592h-48.532c-0.494-3.812-3.745-6.759-7.691-6.759s-7.197,2.947-7.691,6.759h-48.532v-17.95h89.701
	c4.143,0,7.5-3.357,7.5-7.5s-3.357-7.5-7.5-7.5h-89.701v-29.505h89.701c4.143,0,7.5-3.357,7.5-7.5s-3.357-7.5-7.5-7.5h-89.701
	v-24.742c17.564,8.384,37.209,13.084,57.933,13.084c19.39,0,37.833-4.118,54.514-11.514V454.592z M352.552,326.178l-21.291,21.291
	l-11.673-11.253c7.91-6.287,15.098-13.442,21.425-21.319L352.552,326.178z M134.613,230.532
	c0-55.779,45.379-101.159,101.159-101.159c13.23,0,26.098,2.517,38.244,7.481c3.835,1.566,5.673,5.945,4.105,9.779
	c-1.566,3.835-5.944,5.675-9.779,4.105c-10.337-4.225-21.296-6.366-32.57-6.366c-47.508,0-86.159,38.65-86.159,86.159
	s38.65,86.159,86.159,86.159c47.509,0,86.159-38.65,86.159-86.159c0-17.561-5.247-34.452-15.175-48.849
	c-2.352-3.41-1.494-8.081,1.916-10.432c3.41-2.352,8.08-1.494,10.432,1.916c11.663,16.912,17.827,36.748,17.827,57.364
	c0,55.779-45.38,101.159-101.159,101.159S134.613,286.312,134.613,230.532z M235.771,175.239c4.143,0,7.5,3.357,7.5,7.5v47.793
	c0,1.989-0.79,3.896-2.196,5.304l-31.862,31.861c-1.464,1.464-3.384,2.196-5.303,2.196s-3.839-0.732-5.303-2.196
	c-2.929-2.93-2.929-7.678,0-10.607l29.665-29.664v-44.687C228.271,178.597,231.629,175.239,235.771,175.239z M241.981,406.269
	c0,4.374-3.546,7.92-7.92,7.92s-7.92-3.546-7.92-7.92s3.546-7.92,7.92-7.92S241.981,401.895,241.981,406.269z M272.606,257.292
	c7.069,0,12.8,5.731,12.8,12.8c0,7.069-5.731,12.8-12.8,12.8c-7.069,0-12.8-5.731-12.8-12.8
	C259.806,263.022,265.537,257.292,272.606,257.292z"/>
<g>
</g>
<g>
</g>
<g>
</g>
<g>
</g>
<g>
</g>
<g>
</g>
<g>
</g>
<g>
</g>
<g>
</g>
<g>
</g>
<g>
</g>
<g>
</g>
<g>
</g>
<g>
</g>
<g>
</g>
</svg>
